<?xml version="1.0" encoding="utf-8"?>
<!-- Generator: Adobe Illustrator 16.0.0, SVG Export Plug-In . SVG Version: 6.00 Build 0)  -->
<!DOCTYPE svg PUBLIC "-//W3C//DTD SVG 1.1//EN" "http://www.w3.org/Graphics/SVG/1.1/DTD/svg11.dtd" [
	<!ENTITY ns_flows "http://ns.adobe.com/Flows/1.0/">
	<!ENTITY ns_extend "http://ns.adobe.com/Extensibility/1.0/">
	<!ENTITY ns_ai "http://ns.adobe.com/AdobeIllustrator/10.0/">
	<!ENTITY ns_graphs "http://ns.adobe.com/Graphs/1.0/">
]>
<svg version="1.1" id="Layer_1" xmlns:x="&ns_extend;" xmlns:i="&ns_ai;" xmlns:graph="&ns_graphs;"
	 xmlns="http://www.w3.org/2000/svg" xmlns:xlink="http://www.w3.org/1999/xlink" xmlns:a="http://ns.adobe.com/AdobeSVGViewerExtensions/3.0/"
	 x="0px" y="0px" width="864px" height="864px" viewBox="0 0 864 864" enable-background="new 0 0 864 864" xml:space="preserve">
<path fill-rule="evenodd" clip-rule="evenodd" fill="#EE2A7B" d="M480.2,667.8c-4.841-2.514-9.683-5.027-14.523-7.54
	c-4.264,3.62-14.137,4.448-24.55,3.912c-13.168-0.679-15.966-3.017-17.859-16.176c-0.25-1.738-0.541-3.471-0.918-5.878
	c-9.092,21.126-14.573,25.875-28.251,23.638c-15.187-2.484-10.155-15.979-13.33-26.389c-2.562,4.923-3.939,9.701-6.991,12.865
	c-3.424,3.551-8.649,8.129-12.562,7.678c-4.007-0.463-8.996-5.863-10.626-10.202c-2.228-5.929-1.681-12.897-2.336-19.42
	c-0.373-3.718-0.768-7.434-3.053-11.075c-0.633,7.381-1.159,14.773-1.927,22.14c-1.151,11.052-6.778,15.475-16.318,9.979
	c-14.746-8.495-30.526-14.188-45.827-21.177c-7.083-3.235-12.325-10.31-18.813-15.083c-8.305-6.11-16.792-12.047-25.627-17.347
	c-10.977-6.584-15.936-16.573-18.013-28.647c-7.969,7.921-13.021,6.926-17.801-3.492c-1.245-2.711-1.443-6.147-3.255-8.294
	c-3-3.554-6.663-6.705-10.514-9.343c-5.188-3.554-11.869-5.457-16.063-9.836c-12.372-12.916-23.055-27.525-35.994-39.787
	c-6.138-5.817-0.194-17.244-12.868-20.022c-7.68-1.684-13.607-10.783-20.651-16.116c-6.911-5.23-14.411-9.685-21.325-14.91
	c-4.762-3.6-9.478-7.514-13.241-12.089c-2.438-2.962-5.377-8.562-4.145-10.893c3.041-5.75,8.573-11.127,16.082-8.353
	c8.483,3.132,16.443,7.697,24.59,11.72c8.199,4.049,16.311,8.278,24.566,12.207c1.094,0.52,2.866-0.068,4.226-0.474
	c16.037-4.777,29.317,5.986,27.354,22.245c-0.412,3.416-0.969,6.813-1.471,10.294c1.013,0,1.523,0.105,1.584-0.015
	c8.883-17.665,23.836-23.017,42.742-23.271c10.87-0.146,21.651-4.282,32.551-6.17c3.503-0.606,7.257,0.229,10.897,0.406
	c0.394,0.854,0.787,1.706,1.179,2.56c-3.925,4.506-7.85,9.011-11.775,13.516c0.238,0.58,0.476,1.159,0.715,1.738
	c2.457-0.755,5.683-0.766,7.247-2.384c10.217-10.574,23.687-10.406,36.637-10.958c3.583-0.153,7.341,3.812,12.486,6.716
	c3.211-1.321,8.723-5.024,14.539-5.586c5.994-0.579,12.289,1.86,18.438,3.056c3.486,0.679,6.913,1.711,10.418,2.226
	c4.74,0.697,9.519,1.219,14.3,1.523c21.759,1.39,24.935,6.588,15.824,25.855c-2.424,5.127-4.751,10.333-6.593,15.686
	c-0.839,2.435-0.387,5.313-0.521,7.99c0.978,0.28,1.956,0.562,2.933,0.842c2.417-5.162,4.997-10.257,7.218-15.502
	c3.998-9.44,9.481-17.321,19.802-20.693c12.118-3.96,18.104-0.349,19.56,10.935c7.056-3.255,14.201-6.994,21.678-9.875
	c7.396-2.85,12.826,0.561,14.155,7.913c1.907,10.542,2.53,21.313,3.748,31.981c0.558,4.885,1.225,9.759,3.789,14.554
	c6.679-16.222-1.365-32.43-0.224-50.578c8.044,0.664,17.796-1.192,23.783,2.715c5.982,3.903,8.196,13.578,12.291,21.145
	c-0.532-4.628-0.999-9.029-1.548-13.421c-1.808-14.493,7.01-23.582,21.246-19.28c9.73,2.94,18.005,7.031,27.48-0.012
	c1.821-1.354,5.847,0.64,8.73,0.223c2.988-0.433,7.71-1.2,8.419-3.062c4.368-11.455,10.114-8.727,16.099-1.938
	c10.039-8.887,10.039-8.887,19.266,2.997c0.254-0.438,0.777-0.92,0.703-1.279c-1.35-6.562-7.722-13.388,0.499-19.506
	c7.054-5.25,26.769-4.814,33.555,0.366c3.019,2.305,5.992,4.669,9.141,7.126c6.143-13.427,14.057-16.727,27.935-11.376
	c6.471,2.494,11.611,2.875,18.467-0.279c5.232-2.408,13.216-1.547,18.942,0.606c5.495,2.065,9.518,2.312,15.055,0.547
	c10.918-3.48,21.931-1.821,32.326,2.98c3.88,1.792,6.042,0.532,9.961-1.485c13.673-7.038,28.109-12.827,42.718-17.707
	c6.462-2.16,11.039,3.303,9.597,10.162c-0.83,3.945-2.509,8.423-5.298,11.117c-10.525,10.165-21.317,20.135-32.786,29.194
	c-3.348,2.644-9.277,2.017-15.159,3.099c-0.822,19.211-18.409,25.481-33.417,34.416c-4.043,2.407-7.351,6.272-10.491,9.905
	c-2.894,3.346-4.52,7.923-7.721,10.843c-17.05,15.549-34.399,30.77-51.705,46.034c-1.948,1.72-4.277,3.005-7.371,5.143
	c-2.126-7.054-3.976-13.193-5.826-19.332c1.256,32.112-26.375,42.981-44.197,63.589c-1.671-5.585-2.619-8.754-4.161-13.903
	c-2.582,6.745-4.146,11.734-6.381,16.401c-2.054,4.291-4.416,8.567-7.369,12.27c-8.016,10.042-13.494,9.572-20.768-2.693
	c-5.74,4.813-11.269,9.522-16.876,14.137c-10.942,9.003-16.002,7.281-18.22-6.644c-1.407-8.842-1.961-17.82-3.119-28.832
	c-0.877,9.57-1.678,17.064-2.227,24.578c-0.786,10.756-4.596,19.586-14.862,24.559C492.199,667.8,486.2,667.8,480.2,667.8z
	 M473.644,596.885c-6.905,11.574-5.604,41.344,0,47.041C473.644,628.488,473.644,612.687,473.644,596.885z M536.959,515.953
	c1.577-0.656,3.155-1.314,4.732-1.971c-4.477-10.644-8.953-21.286-13.43-31.929c-1.483,0.616-2.967,1.232-4.45,1.85
	C528.193,494.586,532.576,505.27,536.959,515.953z"/>
<path fill-rule="evenodd" clip-rule="evenodd" fill="#EE2A7B" d="M816.8,401.4c-14.047,6.237-27.283,6.28-40.697-2.76
	c-4.779-3.219-11.876-3.66-18.001-4.068c-9.553-0.636-19.188,0.085-28.769-0.285c-3.688-0.143-7.322-1.699-10.981-2.61
	c1.325-3.415,2.655-6.828,3.972-10.246c0.393-1.02,0.744-2.055-0.169-4.281c-4.897,4.39-9.955,8.613-14.656,13.205
	c-8.255,8.064-17.279,9.921-27.889,4.875c-3.709-1.764-7.976-3.176-12.016-3.253c-8.237-0.155-13.923-2.345-12.977-13.742
	c-12.185,11.452-24.847,10.956-38.043,6.904c-12.375-3.801-15.539-10.182-10.615-22.56c3.032-7.625,6.502-15.077,9.776-22.607
	c-0.813-0.473-1.628-0.947-2.441-1.42c-4.341,6.579-10.388,12.631-12.619,19.862c-3.249,10.534-9.888,16.392-19.417,19.228
	c-8.219,2.445-16.909,3.305-26.73,5.111c0.429-8.431,0.92-15.456,1.104-22.489c0.179-6.778,0.039-13.565-2.012-20.787
	c-1.494,5.164-3.188,10.278-4.449,15.498c-6.543,27.078-4.544,29.276-41.151,33.496c0-15.753,0-31.463,0-47.172
	c-0.342-0.083-0.685-0.166-1.026-0.25c-1.021,7.52-2.231,15.02-3.009,22.563c-0.86,8.341-1.121,16.744-2.034,25.077
	c-0.556,5.071-1.671,11.779-8.135,10.49c-4.135-0.825-7.914-6.028-10.693-10.067c-1.653-2.403-1.061-6.353-1.713-11.439
	c-1.9,5.368-3.158,9.252-4.65,13.043c-1.419,3.606-2.707,7.348-4.722,10.617c-3.499,5.679-7.662,11.79-15.384,10.127
	c-8.331-1.795-6.694-9.542-7.018-15.576c-0.722-13.471-1.111-26.958-1.752-40.433c-0.12-2.52-0.781-5.012-1.193-7.518
	c-0.764-0.073-1.527-0.147-2.291-0.221c-0.733,2.841-1.902,5.647-2.13,8.527c-1.268,16.133-2.184,32.294-3.472,48.427
	c-0.809,10.144-7.708,14.289-15.848,8.177c-10.187-7.648-20.78-12.986-32.938-16.995c-10.549-3.479-12.576-15.147-14.161-25.403
	c-0.864-5.594-1.329-11.25-2.189-18.75c-2,8.038-3.048,14.374-5.19,20.315c-2.658,7.371-6.405,7.958-11.869,2.454
	c-2.913-2.935-5.571-6.122-9.173-10.113c-7.675,10.699-17.142,7.401-26.154,3.896c-11.107-4.321-21.682-2.12-32.548,0.682
	c-13.741,3.542-15.499,2.413-20.765-10.887c-1.848-4.667-3.691-9.338-7.26-13.772c0,7.373-0.09,14.748,0.021,22.119
	c0.174,11.415-4.578,15.529-15.933,13.6c-6.957-1.183-9.81-5.901-11.186-12.333c-1.187-5.545-3.023-10.95-4.572-16.417
	c-0.949,0.174-1.897,0.348-2.846,0.523c0,3.044,0.268,6.119-0.057,9.128c-0.639,5.904-0.75,12.064-2.625,17.595
	c-3.514,10.356-10.114,12.192-19.417,6.447c-1.232-0.76-2.546-1.39-3.74-2.035c-10.121,10.801-11.036,10.714-20.488-1.55
	c-2.561-3.322-4.967-6.798-7.836-9.831c-1.269-1.342-3.744-2.691-5.254-2.323c-1.404,0.342-2.585,2.837-3.248,4.615
	c-0.604,1.619-0.435,3.545-0.513,5.34c-0.643,14.76-0.636,14.76-15.95,15.101c-17.396,0.386-17.396,0.386-30.189-10.783
	c-5.756,6.604-12.674,5.553-21.102,4.804c-8.858-0.788-18.262,4.557-27.426,7.225c-6.036,1.756-12.228,4.357-16.541-3.095
	c0-2.4,0-4.8,0-7.2c1.313-2.315,2.624-4.632,3.939-6.945c6.348-11.161,13.16-20.311,28.061-22.234
	c12.928-1.669,24.14-10.254,30.29-21.999c4.006-7.651,9.433-11.377,16.749-13.201c7.521-1.875,15.405-2.284,22.934-4.133
	c3.395-0.834,8.177-2.938,9.134-5.611c4.551-12.71,14.525-20.153,26.117-22.588c13.601-2.855,20.257-13.789,29.931-20.908
	c4.906-3.612,7.75-3.946,11.211-0.944c3.993,3.464,7.073,7.997,10.468,12.132c2.507,3.052,4.883,6.213,7.318,9.325
	c1.104-0.566,2.207-1.132,3.311-1.698c-2.412-6.339-4.21-13.009-7.391-18.936c-3.954-7.369-2.331-12.557,4.201-16.836
	c8.27-5.417,16.409-11.084,24.997-15.952c5.114-2.898,10.898-4.723,16.537-6.554c4.23-1.374,8.707-1.989,13.073-2.942
	c0.569-1.215,1.138-2.432,1.705-3.647c2.058,2.978,4.115,5.956,6.438,9.317c0.155-16.595,1.6-17.759,17.639-24.114
	c11.739-4.65,21.341,1.379,31.327,5.278c3.736-10.822,4.902-11.167,14.037-6.527c1.694,0.86,4.474,0.701,6.304-0.062
	c3.526-1.468,6.732-3.703,10.072-5.62c3.6,0,7.2,0,10.8,0c11.506,5.55,17.534,15.321,20.515,29.041
	c1.171-2.836,1.473-3.996,2.083-4.959c1.65-2.607,3.433-5.131,5.163-7.688c2.283,2.049,4.594,4.067,6.841,6.153
	c2.334,2.167,4.409,4.668,6.955,6.536c3.706,2.72,7.731,5.005,13.022,8.367c3.923-6.174,8.409-13.478,13.174-20.597
	c1.577-2.355,4.281-6.292,5.77-5.994c10.354,2.068,18.094-4.715,27.109-6.867c3.374-0.805,7.262,0.542,10.915,0.907
	c-0.765,4.242-1.339,8.531-2.365,12.709c-0.617,2.521-1.938,4.869-2.942,7.295c1.132,0.518,2.263,1.034,3.394,1.552
	c2.186-3.948,3.883-8.297,6.695-11.733c2.85-3.481,6.723-8.266,10.294-8.393c3.325-0.119,6.877,5.101,10.251,8.059
	c0.854,0.748,1.41,1.836,2.103,2.768c0.274-0.814,0.548-1.627,0.822-2.441c9.329,2.312,18.893,3.951,27.927,7.106
	c11.607,4.054,11.938,6.059,6.591,16.994c-2.703,5.527-5.146,11.18-7.706,16.776c0.749,0.361,1.497,0.723,2.246,1.084
	c1.182-1.594,2.554-3.083,3.519-4.8c13.419-23.903,18.392-19.646,38.72-10.055c4.77,2.251,6.498,10.564,11.235,13.37
	c5.175,3.064,13.059,1.508,18.302,4.512c22.913,13.13,45.389,27.034,67.765,41.069c3.232,2.028,6.333,5.975,7.242,9.599
	c1.418,5.648,4.069,7.551,9.384,6.63c5.797-1.004,9.818,0.585,11.746,6.713c0.648,2.062,2.789,3.73,4.438,5.389
	c3.212,3.232,6.455,6.445,9.879,9.448c2.856,2.506,5.711,5.25,9.045,6.946c22.294,11.33,43.221,24.178,55.671,47.104
	C816.8,395.4,816.8,398.4,816.8,401.4z"/>
<path fill-rule="evenodd" clip-rule="evenodd" fill="#FFFFFF" d="M473.644,596.885c0,15.802,0,31.604,0,47.041
	C468.039,638.229,466.738,608.459,473.644,596.885z"/>
<path fill-rule="evenodd" clip-rule="evenodd" fill="#FFFFFF" d="M536.959,515.953c-4.383-10.684-8.766-21.367-13.147-32.05
	c1.483-0.617,2.967-1.233,4.45-1.85c4.477,10.643,8.953,21.285,13.43,31.929C540.114,514.639,538.536,515.297,536.959,515.953z"/>
</svg>
